<?xml version="1.0" encoding="UTF-8" standalone="no"?>
<!-- Created with Inkscape (http://www.inkscape.org/) -->

<svg
   xmlns:dc="http://purl.org/dc/elements/1.1/"
   xmlns:cc="http://creativecommons.org/ns#"
   xmlns:rdf="http://www.w3.org/1999/02/22-rdf-syntax-ns#"
   xmlns:svg="http://www.w3.org/2000/svg"
   xmlns="http://www.w3.org/2000/svg"
   xmlns:sodipodi="http://sodipodi.sourceforge.net/DTD/sodipodi-0.dtd"
   xmlns:inkscape="http://www.inkscape.org/namespaces/inkscape"
   id="svg2"
   version="1.1"
   inkscape:version="0.91 r13725"
   width="60"
   height="60"
   viewBox="0 0 60 60"
   sodipodi:docname="icon_msg.svg"
   inkscape:export-filename="icon.png"
   inkscape:export-xdpi="192"
   inkscape:export-ydpi="192">
  <metadata
     id="metadata8">
    <rdf:RDF>
      <cc:Work
         rdf:about="">
        <dc:format>image/svg+xml</dc:format>
        <dc:type
           rdf:resource="http://purl.org/dc/dcmitype/StillImage" />
        <dc:title></dc:title>
      </cc:Work>
    </rdf:RDF>
  </metadata>
  <defs
     id="defs6">
    <clipPath
       id="clipPath3386"
       clipPathUnits="userSpaceOnUse">
      <path
         inkscape:connector-curvature="0"
         id="path3388"
         d="m 0,8.23047 3590,0 0,4050.00003 -3590,0 L 0,8.23047 Z" />
    </clipPath>
  </defs>
  <sodipodi:namedview
     pagecolor="#ffffff"
     bordercolor="#666666"
     borderopacity="1"
     objecttolerance="10"
     gridtolerance="10"
     guidetolerance="10"
     inkscape:pageopacity="0"
     inkscape:pageshadow="2"
     inkscape:window-width="1680"
     inkscape:window-height="997"
     id="namedview4"
     showgrid="false"
     inkscape:zoom="5.6568543"
     inkscape:cx="4.6029692"
     inkscape:cy="50.53049"
     inkscape:window-x="3600"
     inkscape:window-y="0"
     inkscape:window-maximized="1"
     inkscape:current-layer="layer1"
     showguides="true"
     inkscape:guide-bbox="true">
    <sodipodi:guide
       position="35.707031,48.789062"
       orientation="-0.70710678,0.70710678"
       id="guide3348" />
    <sodipodi:guide
       position="12.794213,42.669475"
       orientation="-0.70710678,0.70710678"
       id="guide3350" />
    <sodipodi:guide
       position="0,41.75"
       orientation="1,0"
       id="guide3360" />
    <sodipodi:guide
       position="60,60.074219"
       orientation="1,0"
       id="guide3362" />
    <sodipodi:guide
       position="0.17578125,60"
       orientation="0,1"
       id="guide3364" />
    <sodipodi:guide
       position="58.71196,-0.0055242717"
       orientation="0,1"
       id="guide3366" />
    <sodipodi:guide
       position="48.746094,29.542969"
       orientation="-0.70710678,0.70710678"
       id="guide3345" />
    <sodipodi:guide
       position="-10.783378,84.49926"
       orientation="-0.70710678,0.70710678"
       id="guide3347" />
    <sodipodi:guide
       position="46.403883,47.729708"
       orientation="-0.70710678,0.70710678"
       id="guide3349" />
    <sodipodi:guide
       position="47.125,17.28125"
       orientation="-0.70710678,0.70710678"
       id="guide3351" />
  </sodipodi:namedview>
  <g
     inkscape:groupmode="layer"
     id="layer2"
     inkscape:label="Background">
    <rect
       style="opacity:1;fill:#0055a6;fill-opacity:1"
       id="rect4147"
       width="60"
       height="60"
       x="0"
       y="0" />
  </g>
  <g
     id="g4169"
     transform="matrix(0.3061173,0,0,0.3061173,-1.0360053,-1.0457906)"
     style="fill:#ffffff;stroke:none" />
  <g
     inkscape:groupmode="layer"
     id="layer3"
     inkscape:label="Shadow"
     style="display:inline">
    <path
       style="display:inline;fill:#000000;fill-opacity:0.39215686;fill-rule:evenodd"
       d="M 0,30.124738 12.794213,17.330525 45.431611,17.22004 47.729708,20.048467 47.125,42.71875 29.838226,60.005524 0,60.005524 Z"
       id="path4262"
       inkscape:connector-curvature="0" />
  </g>
  <g
     inkscape:groupmode="layer"
     id="layer1"
     inkscape:label="Icon"
     style="display:inline">
    <g
       transform="matrix(0.0955059,0,0,-0.0955059,11.536741,44.146427)"
       inkscape:label="ink_ext_XXXXXX"
       id="g4250"
       style="fill:#ffffff"
       inkscape:export-filename="icon.png"
       inkscape:export-xdpi="192"
       inkscape:export-ydpi="192">
      <g
         transform="scale(0.1,0.1)"
         id="g4252"
         style="fill:#ffffff">
        <path
           inkscape:connector-curvature="0"
           id="path4254"
           style="fill:#ffffff;fill-opacity:1;fill-rule:nonzero;stroke:none"
           d="m 3394.41,2952.4 -2921.601,0 C 211.988,2952.4 0,2740.41 0,2479.59 L 0,482.789 C 0,222.012 211.988,10.0195 472.809,10.0195 l 2920.781,0 c 260.82,0 472.82,211.9925 472.82,472.7695 l 0,1996.021 c 0.78,260.78 -211.21,473.59 -472,473.59 z m 256.8,-2469.611 c 0,-141.598 -115.19,-256.801 -256.8,-256.801 l -2921.601,0 c -141.598,0 -256.789,115.203 -256.789,256.801 l 0,1996.021 c 0,141.6 115.191,256.79 256.789,256.79 l 2920.781,0 c 141.61,0 256.8,-115.19 256.8,-256.79 l 0,-1996.021 0.82,0 z" />
        <path
           inkscape:connector-curvature="0"
           id="path4256"
           style="fill:#ffffff;fill-opacity:1;fill-rule:nonzero;stroke:none"
           d="M 2438.4,1505.99 3383.98,2354 c 44.03,40 48.01,108.01 8.01,152.81 -40,43.99 -108.01,47.97 -152.77,7.97 L 1935.2,1344.39 1680.78,1571.62 c -0.78,0.78 -1.56,1.56 -1.56,2.38 -5.63,5.59 -11.21,10.39 -17.62,15.2 L 626.41,2515.6 c -44.808,40 -112.82,36.02 -152.82,-8.79 -40,-44.8 -35.969,-112.81 8.789,-152.81 L 1439.22,1498.81 486.41,606.809 C 443.199,565.988 440.781,497.988 481.602,454 c 21.597,-22.379 50.386,-34.41 79.179,-34.41 26.41,0 52.809,9.609 73.629,28.832 l 967.19,904.758 262.38,-234.37 c 20.82,-18.4 46.41,-27.19 72.04,-27.19 25.58,0 51.99,9.57 71.99,27.97 l 269.61,241.6 961.6,-913.588 c 20.78,-20 47.97,-29.614 74.37,-29.614 28.79,0 56.8,11.211 78.4,33.633 40.82,43.16 39.22,111.988 -3.98,152.77 L 2438.4,1505.99 Z" />
      </g>
    </g>
  </g>
</svg>
